<svg width="624" height="217" viewBox="0 0 624 217" fill="none" xmlns="http://www.w3.org/2000/svg">
<g clip-path="url(#clip0_543_3007)">
<g clip-path="url(#clip1_543_3007)">
<path d="M150.925 23C160.866 23 168.925 31.0589 168.925 41V121C168.925 130.941 160.866 139 150.925 139H112.925V176C112.925 185.941 104.866 194 94.925 194H14.925C5.13928 194 -2.8226 186.191 -3.06915 176.465L-3.07501 176V96C-3.07501 86.0589 4.98386 78 14.925 78H94.925C104.866 78 112.925 86.0589 112.925 96V123H150.925C152.03 123 152.925 122.105 152.925 121V41C152.925 39.8954 152.03 39 150.925 39H70.925C69.8204 39 68.925 39.8954 68.925 41V62.25H52.925V41C52.925 31.0589 60.9839 23 70.925 23H150.925ZM14.925 94C13.8204 94 12.925 94.8954 12.925 96V176L12.9357 176.204C13.038 177.213 13.8893 178 14.925 178H94.925C96.0296 178 96.925 177.105 96.925 176V139H70.925C60.9839 139 52.925 130.941 52.925 121V94H14.925ZM68.925 121C68.925 122.105 69.8204 123 70.925 123H96.925V96C96.925 94.8954 96.0296 94 94.925 94H68.925V121Z" fill="white"/>
<path d="M256.056 76.8822C259.76 76.8822 262.784 76.3152 265.128 75.1812C267.547 73.9716 269.324 72.3084 270.458 70.1916C271.592 68.0748 272.159 65.6178 272.159 62.8206C272.159 58.3602 270.874 54.8826 268.303 52.3878C265.733 49.893 261.65 48.6456 256.056 48.6456H237.799V76.8822H256.056ZM283.499 62.8206C283.499 65.6934 283.007 68.5662 282.025 71.439C281.042 74.2362 279.454 76.7688 277.262 79.0368C275.069 81.3048 272.197 83.1192 268.643 84.48C265.166 85.7652 260.97 86.4078 256.056 86.4078H237.799V118.5H226.459V39.12H256.056C262.255 39.12 267.358 40.2162 271.365 42.4086C275.447 44.5254 278.471 47.3982 280.437 51.027C282.478 54.5802 283.499 58.5114 283.499 62.8206ZM296.208 61.8H305.96L306.64 69.3978C308.228 67.4322 310.042 65.8068 312.084 64.5216C314.2 63.1608 316.468 62.2158 318.888 61.6866C321.382 61.1574 323.953 61.1952 326.599 61.8V71.8926C324.104 71.2878 321.685 71.2122 319.341 71.6658C316.998 72.1194 314.881 73.1022 312.991 74.6142C311.176 76.0506 309.702 77.9784 308.568 80.3976C307.434 82.8168 306.867 85.7274 306.867 89.1294V118.5H296.208V61.8ZM362.011 119.294C356.568 119.294 351.73 118.046 347.496 115.552C343.338 112.981 340.05 109.466 337.63 105.005C335.287 100.545 334.115 95.442 334.115 89.6964C334.115 84.1776 335.287 79.2636 337.63 74.9544C339.974 70.6452 343.187 67.2432 347.269 64.7484C351.427 62.2536 356.115 61.0062 361.331 61.0062C366.623 61.0062 371.31 62.178 375.393 64.5216C379.475 66.7896 382.65 70.0026 384.918 74.1606C387.186 78.243 388.282 82.968 388.207 88.3356C388.207 89.2428 388.169 90.1878 388.093 91.1706C388.018 92.0778 387.904 93.0984 387.753 94.2324H345.795C346.022 97.2564 346.854 99.9402 348.29 102.284C349.802 104.552 351.692 106.328 353.96 107.614C356.304 108.899 358.95 109.541 361.898 109.541C365.678 109.541 368.967 108.823 371.764 107.387C374.561 105.875 376.527 103.871 377.661 101.377L386.959 104.665C384.691 109.277 381.365 112.868 376.98 115.438C372.671 118.009 367.681 119.294 362.011 119.294ZM376.527 85.047C376.527 82.3254 375.846 79.8684 374.485 77.676C373.125 75.4836 371.272 73.7826 368.929 72.573C366.661 71.2878 364.09 70.6452 361.218 70.6452C358.647 70.6452 356.266 71.2878 354.073 72.573C351.957 73.7826 350.142 75.4836 348.63 77.676C347.194 79.7928 346.287 82.2498 345.909 85.047H376.527ZM404.931 61.8V45.924H415.704V61.8H429.879V71.3256H415.704V99.222C415.704 102.7 416.384 105.157 417.745 106.593C419.181 108.029 420.958 108.861 423.075 109.088C425.267 109.239 427.535 109.163 429.879 108.861V118.046C426.779 118.727 423.717 118.916 420.693 118.613C417.745 118.387 415.061 117.555 412.642 116.119C410.298 114.682 408.408 112.603 406.972 109.882C405.611 107.084 404.931 103.531 404.931 99.222V71.3256H396.766V61.8H404.931ZM443.535 61.8H454.308V118.5H443.535V61.8ZM448.978 51.8208C446.937 51.8208 445.236 51.1404 443.875 49.7796C442.514 48.4188 441.834 46.7556 441.834 44.79C441.834 42.7488 442.514 41.0478 443.875 39.687C445.236 38.2506 446.937 37.5324 448.978 37.5324C450.943 37.5324 452.607 38.2506 453.967 39.687C455.404 41.0478 456.122 42.7488 456.122 44.79C456.122 46.7556 455.404 48.4188 453.967 49.7796C452.607 51.1404 450.943 51.8208 448.978 51.8208ZM519.578 118.5H509.826L509.032 111.809C507.218 114.229 504.912 116.081 502.115 117.366C499.393 118.651 496.331 119.294 492.929 119.294C488.544 119.294 484.727 118.387 481.476 116.572C478.225 114.682 475.692 111.961 473.878 108.407C472.139 104.779 471.27 100.28 471.27 94.9128V61.8H482.043V93.552C482.043 98.7684 483.101 102.737 485.218 105.459C487.41 108.181 490.699 109.541 495.084 109.541C499.393 109.541 502.757 108.143 505.176 105.346C507.671 102.548 508.919 98.3904 508.919 92.8716V61.8H519.578V118.5ZM535.743 61.8H545.495L546.176 68.3772C547.99 66.1092 550.258 64.3326 552.98 63.0474C555.701 61.6866 558.763 61.0062 562.165 61.0062C566.021 61.0062 569.498 61.8756 572.598 63.6144C575.773 65.2776 578.268 67.7724 580.082 71.0988C581.972 67.7724 584.656 65.2776 588.134 63.6144C591.611 61.8756 595.429 61.0062 599.587 61.0062C603.896 61.0062 607.676 61.9512 610.927 63.8412C614.254 65.6556 616.824 68.3772 618.638 72.006C620.453 75.6348 621.36 80.1708 621.36 85.614V118.5H610.587V86.9748C610.587 81.6828 609.453 77.676 607.185 74.9544C604.917 72.1572 601.666 70.7586 597.433 70.7586C593.123 70.7586 589.721 72.195 587.227 75.0678C584.732 77.9406 583.484 82.1364 583.484 87.6552V118.5H572.711V86.9748C572.711 81.6828 571.653 77.676 569.536 74.9544C567.419 72.1572 564.244 70.7586 560.011 70.7586C555.701 70.7586 552.337 72.195 549.918 75.0678C547.574 77.9406 546.403 82.1364 546.403 87.6552V118.5H535.743V61.8Z" fill="white"/>
<path d="M225.279 148.45H229.429V161.024H244.037V148.45H248.145V177.5H244.037V164.51H229.429V177.5H225.279V148.45ZM274.164 151.936H258.892V161.024H270.346V164.51H258.892V174.014H274.164V177.5H254.742V148.45H274.164V151.936ZM291.778 151.936H290.326L281.196 177.5H276.963L287.421 148.45H294.6L305.058 177.5H300.825L291.778 151.936ZM282.316 166.627H299.248V170.113H282.316V166.627ZM312.793 148.45V174.014H326.073V177.5H308.643V148.45H312.793ZM328.828 148.45H351.114V151.936H342.067V177.5H337.917V151.936H328.828V148.45ZM356.02 148.45H360.17V161.024H374.778V148.45H378.886V177.5H374.778V164.51H360.17V177.5H356.02V148.45ZM399.604 169.822C399.77 170.597 400.102 171.316 400.6 171.98C401.126 172.644 401.832 173.184 402.717 173.599C403.602 174.014 404.695 174.221 405.995 174.221C407.932 174.221 409.357 173.779 410.27 172.893C411.211 171.98 411.681 170.915 411.681 169.698C411.681 168.702 411.39 167.886 410.809 167.249C410.256 166.585 409.481 166.032 408.485 165.589C407.517 165.119 406.397 164.704 405.124 164.344C404.017 164.012 402.924 163.667 401.845 163.307C400.794 162.92 399.84 162.449 398.982 161.896C398.124 161.315 397.446 160.582 396.948 159.696C396.45 158.783 396.201 157.649 396.201 156.293C396.201 154.606 396.603 153.153 397.405 151.936C398.207 150.719 399.328 149.792 400.766 149.155C402.233 148.491 403.92 148.159 405.829 148.159C407.434 148.159 408.873 148.395 410.145 148.865C411.418 149.308 412.483 149.958 413.341 150.815C414.226 151.645 414.876 152.655 415.291 153.845L411.515 155.214C411.349 154.606 411.003 154.039 410.477 153.513C409.952 152.96 409.288 152.517 408.485 152.185C407.683 151.853 406.784 151.687 405.788 151.687C404.764 151.659 403.837 151.825 403.007 152.185C402.205 152.517 401.555 153.001 401.057 153.637C400.587 154.274 400.351 155.035 400.351 155.92C400.351 156.888 400.628 157.649 401.181 158.202C401.735 158.756 402.468 159.212 403.381 159.572C404.322 159.932 405.345 160.277 406.452 160.609C407.614 160.969 408.748 161.356 409.855 161.771C410.962 162.186 411.958 162.712 412.843 163.348C413.756 163.985 414.489 164.787 415.042 165.755C415.596 166.696 415.872 167.886 415.872 169.324C415.872 170.874 415.513 172.285 414.793 173.557C414.074 174.83 412.981 175.854 411.515 176.628C410.076 177.403 408.264 177.791 406.078 177.791C404.28 177.791 402.662 177.514 401.223 176.96C399.784 176.407 398.595 175.646 397.654 174.678C396.741 173.682 396.132 172.534 395.828 171.233L399.604 169.822ZM434.138 177.791C432.09 177.791 430.167 177.431 428.369 176.711C426.598 175.992 425.049 174.982 423.721 173.682C422.393 172.354 421.356 170.791 420.609 168.992C419.862 167.166 419.488 165.161 419.488 162.975C419.488 160.789 419.862 158.797 420.609 156.999C421.356 155.201 422.393 153.637 423.721 152.309C425.049 150.981 426.598 149.958 428.369 149.238C430.167 148.519 432.09 148.159 434.138 148.159C436.157 148.159 438.052 148.519 439.823 149.238C441.594 149.958 443.143 150.981 444.471 152.309C445.799 153.637 446.837 155.201 447.584 156.999C448.331 158.797 448.704 160.789 448.704 162.975C448.704 165.161 448.331 167.166 447.584 168.992C446.837 170.791 445.799 172.354 444.471 173.682C443.143 174.982 441.594 175.992 439.823 176.711C438.052 177.431 436.157 177.791 434.138 177.791ZM434.138 174.221C436.102 174.221 437.859 173.765 439.408 172.852C440.985 171.939 442.23 170.639 443.143 168.951C444.056 167.263 444.513 165.271 444.513 162.975C444.513 160.651 444.056 158.659 443.143 156.999C442.23 155.311 440.985 154.011 439.408 153.098C437.859 152.185 436.102 151.728 434.138 151.728C432.146 151.728 430.361 152.185 428.784 153.098C427.207 154.011 425.962 155.311 425.049 156.999C424.164 158.659 423.721 160.651 423.721 162.975C423.721 165.271 424.164 167.263 425.049 168.951C425.962 170.639 427.207 171.939 428.784 172.852C430.361 173.765 432.146 174.221 434.138 174.221ZM457.76 148.45V174.014H471.04V177.5H453.61V148.45H457.76ZM475.247 148.45H479.397V166.917C479.397 168.577 479.715 169.961 480.352 171.067C480.988 172.146 481.86 172.949 482.966 173.474C484.073 173.972 485.318 174.221 486.701 174.221C488.112 174.221 489.357 173.972 490.436 173.474C491.543 172.949 492.414 172.146 493.051 171.067C493.687 169.961 494.005 168.577 494.005 166.917V148.45H498.155V166.835C498.155 168.716 497.837 170.348 497.201 171.731C496.592 173.087 495.734 174.221 494.628 175.134C493.549 176.02 492.318 176.684 490.934 177.126C489.579 177.569 488.154 177.791 486.66 177.791C484.668 177.791 482.8 177.403 481.057 176.628C479.314 175.826 477.903 174.623 476.824 173.018C475.773 171.386 475.247 169.324 475.247 166.835V148.45ZM502.934 148.45H525.219V151.936H516.172V177.5H512.022V151.936H502.934V148.45ZM530.125 148.45H534.275V177.5H530.125V148.45ZM553.855 177.791C551.808 177.791 549.885 177.431 548.087 176.711C546.316 175.992 544.767 174.982 543.439 173.682C542.111 172.354 541.073 170.791 540.326 168.992C539.579 167.166 539.206 165.161 539.206 162.975C539.206 160.789 539.579 158.797 540.326 156.999C541.073 155.201 542.111 153.637 543.439 152.309C544.767 150.981 546.316 149.958 548.087 149.238C549.885 148.519 551.808 148.159 553.855 148.159C555.875 148.159 557.77 148.519 559.541 149.238C561.312 149.958 562.861 150.981 564.189 152.309C565.517 153.637 566.554 155.201 567.301 156.999C568.048 158.797 568.422 160.789 568.422 162.975C568.422 165.161 568.048 167.166 567.301 168.992C566.554 170.791 565.517 172.354 564.189 173.682C562.861 174.982 561.312 175.992 559.541 176.711C557.77 177.431 555.875 177.791 553.855 177.791ZM553.855 174.221C555.82 174.221 557.577 173.765 559.126 172.852C560.703 171.939 561.948 170.639 562.861 168.951C563.774 167.263 564.23 165.271 564.23 162.975C564.23 160.651 563.774 158.659 562.861 156.999C561.948 155.311 560.703 154.011 559.126 153.098C557.577 152.185 555.82 151.728 553.855 151.728C551.863 151.728 550.079 152.185 548.502 153.098C546.925 154.011 545.68 155.311 544.767 156.999C543.882 158.659 543.439 160.651 543.439 162.975C543.439 165.271 543.882 167.263 544.767 168.951C545.68 170.639 546.925 171.939 548.502 172.852C550.079 173.765 551.863 174.221 553.855 174.221ZM596.194 148.45V177.5H591.961L577.477 155.007V177.5H573.327V148.45H577.56L592.044 170.86V148.45H596.194ZM605.24 169.822C605.406 170.597 605.738 171.316 606.236 171.98C606.762 172.644 607.467 173.184 608.353 173.599C609.238 174.014 610.331 174.221 611.631 174.221C613.568 174.221 614.993 173.779 615.906 172.893C616.846 171.98 617.317 170.915 617.317 169.698C617.317 168.702 617.026 167.886 616.445 167.249C615.892 166.585 615.117 166.032 614.121 165.589C613.153 165.119 612.032 164.704 610.76 164.344C609.653 164.012 608.56 163.667 607.481 163.307C606.43 162.92 605.475 162.449 604.618 161.896C603.76 161.315 603.082 160.582 602.584 159.696C602.086 158.783 601.837 157.649 601.837 156.293C601.837 154.606 602.238 153.153 603.041 151.936C603.843 150.719 604.964 149.792 606.402 149.155C607.869 148.491 609.556 148.159 611.465 148.159C613.07 148.159 614.509 148.395 615.781 148.865C617.054 149.308 618.119 149.958 618.977 150.815C619.862 151.645 620.512 152.655 620.927 153.845L617.151 155.214C616.985 154.606 616.639 154.039 616.113 153.513C615.588 152.96 614.924 152.517 614.121 152.185C613.319 151.853 612.42 151.687 611.424 151.687C610.4 151.659 609.473 151.825 608.643 152.185C607.841 152.517 607.191 153.001 606.693 153.637C606.222 154.274 605.987 155.035 605.987 155.92C605.987 156.888 606.264 157.649 606.817 158.202C607.371 158.756 608.104 159.212 609.017 159.572C609.957 159.932 610.981 160.277 612.088 160.609C613.25 160.969 614.384 161.356 615.491 161.771C616.597 162.186 617.593 162.712 618.479 163.348C619.392 163.985 620.125 164.787 620.678 165.755C621.232 166.696 621.508 167.886 621.508 169.324C621.508 170.874 621.149 172.285 620.429 173.557C619.71 174.83 618.617 175.854 617.151 176.628C615.712 177.403 613.9 177.791 611.714 177.791C609.916 177.791 608.297 177.514 606.859 176.96C605.42 176.407 604.23 175.646 603.29 174.678C602.377 173.682 601.768 172.534 601.464 171.233L605.24 169.822Z" fill="white"/>
</g>
</g>
<defs>
<clipPath id="clip0_543_3007">
<rect width="624" height="217" fill="white"/>
</clipPath>
<clipPath id="clip1_543_3007">
<rect width="624" height="217" fill="white"/>
</clipPath>
</defs>
</svg>
